HIERARCHY
ROOT hip
{
  OFFSET 0 0 0
  CHANNELS 6 Xposition Yposition Zposition Zrotation Yrotation Xrotation
  JOINT abdomen
  {
    OFFSET 0 20.6881 -0.73152
    CHANNELS 3 Zrotation Xrotation Yrotation
    JOINT chest
    {
      OFFSET 0 11.7043 -0.48768
      CHANNELS 3 Zrotation Xrotation Yrotation
      JOINT neck
      {
        OFFSET 0 22.1894 -2.19456
        CHANNELS 3 Zrotation Xrotation Yrotation
        JOINT head
        {
          OFFSET -0.24384 7.07133 1.2192
          CHANNELS 3 Zrotation Xrotation Yrotation
          JOINT leftEye
          {
            OFFSET 4.14528 8.04674 8.04672
            CHANNELS 3 Zrotation Xrotation Yrotation
            End Site
            {
              OFFSET 1 0 0
            }
          }
          JOINT rightEye
          {
            OFFSET -3.6576 8.04674 8.04672
            CHANNELS 3 Zrotation Xrotation Yrotation
            End Site
            {
              OFFSET 1 0 0
            }
          }
        }
      }
      JOINT rCollar
      {
        OFFSET -2.68224 19.2634 -4.8768
        CHANNELS 3 Zrotation Xrotation Yrotation
        JOINT rShldr
        {
          OFFSET -8.77824 -1.95073 1.46304
          CHANNELS 3 Zrotation Xrotation Yrotation
          JOINT rForeArm
          {
            OFFSET -28.1742 -1.7115 0.48768
            CHANNELS 3 Zrotation Xrotation Yrotation
            JOINT rHand
            {
              OFFSET -22.5879 0.773209 7.07136
              CHANNELS 3 Zrotation Xrotation Yrotation
              JOINT rThumb1
              {
                OFFSET -1.2192 -0.487915 3.41376
                CHANNELS 3 Zrotation Xrotation Yrotation
                JOINT rThumb2
                {
                  OFFSET -3.37035 -0.52449 3.41376
                  CHANNELS 3 Zrotation Xrotation Yrotation
                  End Site
                  {
                    OFFSET -1.78271 -1.18214 1.43049
                  }
                }
              }
              JOINT rIndex1
              {
                OFFSET -7.75947 0.938293 5.60832
                CHANNELS 3 Zrotation Xrotation Yrotation
                JOINT rIndex2
                {
                  OFFSET -2.54057 -0.884171 1.56538
                  CHANNELS 3 Zrotation Xrotation Yrotation
                  End Site
                  {
                    OFFSET -1.62519 -0.234802 1.16502
                  }
                }
              }
              JOINT rMid1
              {
                OFFSET -8.24714 1.18213 3.41376
                CHANNELS 3 Zrotation Xrotation Yrotation
                JOINT rMid2
                {
                  OFFSET -3.10165 -0.590103 1.0647
                  CHANNELS 3 Zrotation Xrotation Yrotation
                  End Site
                  {
                    OFFSET -2.48547 -0.328903 0.83742
                  }
                }
              }
              JOINT rRing1
              {
                OFFSET -8.82822 0.546677 1.51678
                CHANNELS 3 Zrotation Xrotation Yrotation
                JOINT rRing2
                {
                  OFFSET -2.60934 -0.819778 -0.0198488
                  CHANNELS 3 Zrotation Xrotation Yrotation
                  End Site
                  {
                    OFFSET -2.33842 -0.294052 0.168128
                  }
                }
              }
              JOINT rPinky1
              {
                OFFSET -8.27202 -0.0477905 -0.4584
                CHANNELS 3 Zrotation Xrotation Yrotation
                JOINT rPinky2
                {
                  OFFSET -1.82734 -0.647385 -0.700984
                  CHANNELS 3 Zrotation Xrotation Yrotation
                  End Site
                  {
                    OFFSET -1.69225 -0.51767 -0.607171
                  }
                }
              }
            }
          }
        }
      }
      JOINT lCollar
      {
        OFFSET 2.68224 19.2634 -4.8768
        CHANNELS 3 Zrotation Xrotation Yrotation
        JOINT lShldr
        {
          OFFSET 8.77824 -1.95073 1.46304
          CHANNELS 3 Zrotation Xrotation Yrotation
          JOINT lForeArm
          {
            OFFSET 28.1742 -1.7115 0.48768
            CHANNELS 3 Zrotation Xrotation Yrotation
            JOINT lHand
            {
              OFFSET 22.5879 0.773209 7.07136
              CHANNELS 3 Zrotation Xrotation Yrotation
              JOINT lThumb1
              {
                OFFSET 1.2192 -0.487915 3.41376
                CHANNELS 3 Zrotation Xrotation Yrotation
                JOINT lThumb2
                {
                  OFFSET 3.37035 -0.52449 3.41376
                  CHANNELS 3 Zrotation Xrotation Yrotation
                  End Site
                  {
                    OFFSET 1.78271 -1.18214 1.43049
                  }
                }
              }
              JOINT lIndex1
              {
                OFFSET 7.75947 0.938293 5.60832
                CHANNELS 3 Zrotation Xrotation Yrotation
                JOINT lIndex2
                {
                  OFFSET 2.54057 -0.884171 1.56538
                  CHANNELS 3 Zrotation Xrotation Yrotation
                  End Site
                  {
                    OFFSET 1.62519 -0.234802 1.16502
                  }
                }
              }
              JOINT lMid1
              {
                OFFSET 8.24714 1.18213 3.41376
                CHANNELS 3 Zrotation Xrotation Yrotation
                JOINT lMid2
                {
                  OFFSET 3.10165 -0.590103 1.0647
                  CHANNELS 3 Zrotation Xrotation Yrotation
                  End Site
                  {
                    OFFSET 2.48547 -0.328903 0.83742
                  }
                }
              }
              JOINT lRing1
              {
                OFFSET 8.82822 0.546677 1.51678
                CHANNELS 3 Zrotation Xrotation Yrotation
                JOINT lRing2
                {
                  OFFSET 2.60934 -0.819778 -0.0198488
                  CHANNELS 3 Zrotation Xrotation Yrotation
                  End Site
                  {
                    OFFSET 2.33842 -0.294052 0.168128
                  }
                }
              }
              JOINT lPinky1
              {
                OFFSET 8.27202 -0.0477905 -0.4584
                CHANNELS 3 Zrotation Xrotation Yrotation
                JOINT lPinky2
                {
                  OFFSET 1.82734 -0.647385 -0.700984
                  CHANNELS 3 Zrotation Xrotation Yrotation
                  End Site
                  {
                    OFFSET 1.69225 -0.51767 -0.607171
                  }
                }
              }
            }
          }
        }
      }
    }
  }
  JOINT rButtock
  {
    OFFSET -8.77824 4.35084 1.2192
    CHANNELS 3 Zrotation Xrotation Yrotation
    JOINT rThigh
    {
      OFFSET 0 -1.70687 -2.19456
      CHANNELS 3 Zrotation Xrotation Yrotation
      JOINT rShin
      {
        OFFSET 0 -36.8199 0.73152
        CHANNELS 3 Zrotation Xrotation Yrotation
        JOINT rFoot
        {
          OFFSET 0.73152 -45.1104 -5.12064
          CHANNELS 3 Zrotation Xrotation Yrotation
          End Site
          {
            OFFSET -1.1221 -3.69964 12.103
          }
        }
      }
    }
  }
  JOINT lButtock
  {
    OFFSET 8.77824 4.35084 1.2192
    CHANNELS 3 Zrotation Xrotation Yrotation
    JOINT lThigh
    {
      OFFSET 0 -1.70687 -2.19456
      CHANNELS 3 Zrotation Xrotation Yrotation
      JOINT lShin
      {
        OFFSET 0 -36.8199 0.73152
        CHANNELS 3 Zrotation Xrotation Yrotation
        JOINT lFoot
        {
          OFFSET -0.73152 -45.1104 -5.12064
          CHANNELS 3 Zrotation Xrotation Yrotation
          End Site
          {
            OFFSET 1.1221 -3.69964 12.103
          }
        }
      }
    }
  }
}
MOTION
Frames:	5
Frame Time:	0.03333
-2.0169 69.572 -43.194 -165.028333 28.678642 -173.929239 7.696062 6.639117 111.40412 -4.078803 -3.054665 -102.387379 4.295308 27.128839 164.907437 -13.783207 34.524716 -145.922086 14.276836 1.843463 14.640807 5.888854 0.039241 0.762908 0.346946 -26.360771 -11.238014 87.3578 34.291997 -66.369364 171.147376 14.795791 27.20211 -113.380065 50.0847 99.904677 83.560658 -52.620634 31.715811 -68.088007 33.954351 14.252296 -5.822517 11.210573 0.765298 -4.316891 27.247012 18.754622 3.029963 -24.513654 7.252882 -5.777594 68.36032 2.352587 -70.500914 76.567954 84.29999 -136.251532 -66.50764 -146.705187 -40.367313 -41.9504 -11.066183 5.963721 -0.335659 -17.084518 -2.364609 -18.904627 3.253117 97.827643 -1.632042 -108.086024 -78.824385 60.052227 88.540073 -168.806334 3.513049 -167.034193 7.668538 7.290704 -2.967019 -22.304044 -43.660215 14.650405 150.021959 -16.467291 -123.581828 168.099007 -39.688327 -130.492181 26.490938 38.869268 -11.912182 -22.228405 34.211608 -4.33716 67.850173 -77.751862 86.111621 1.929253 30.750863 12.844244 -4.690614 2.843117 2.504283 147.727113 5.41255 161.913781 138.211307 74.175234 31.653193 -157.116117 67.682952 -180.0 -31.872779 -49.238761 -175.390693 -47.893423 41.644249 -44.839464 15.085883 4.935125 7.761548 34.166739 -63.462797 31.562892 -16.825161 71.762663 -162.938999 13.349496 3.086922 -176.841961
-1.7581 68.1261 -44.284600000000005 -163.945107 28.246119 -173.131151 11.666136 9.872941 -0.0 2.506543 -6.625345 6.943722 11.09834 19.777208 104.201294 -26.972027 10.74543 -84.318289 12.919436 0.278331 2.457875 4.752121 -0.100033 -2.410441 -0.599821 -0.256559 -1.525474 -75.103203 -37.737705 -128.981517 -178.704979 21.89988 -62.020985 -11.040674 -52.935219 -8.851929 178.796801 -21.447063 92.580049 -49.06923 -16.535989 5.387966 -168.111156 -42.459463 127.016887 -171.62803 -37.982053 130.40749 0.875402 -30.172582 4.413444 -111.70579 -83.291842 -152.185676 -87.021249 -69.415543 -96.362155 -144.02752 -6.506082 178.212301 -163.517907 62.934142 -175.514028 -121.011815 63.500047 162.104378 83.99503 71.074382 -86.854854 64.3788 0.978466 -0.339633 -9.736987 4.131074 44.235128 -104.475467 -61.379361 -108.74203 10.852233 9.39731 -4.461826 32.23033 19.117449 -24.919912 166.989625 -44.783361 -118.56204 -84.841768 -73.242262 -25.542663 12.46236 13.606181 -2.448711 -60.103773 -84.111366 -11.812439 -1.436377 -1.095376 -7.293991 -171.402914 81.523953 148.109685 164.884588 54.805956 139.651721 129.680422 -43.127211 89.957755 -2.506653 -0.010847 -0.0 -0.756147 -6.25521 -139.235734 -42.760574 -35.551044 108.030051 -91.894801 5.063233 2.281923 -164.225965 70.144005 -9.735489 -157.981994 -0.806637 88.00618 74.883895 -7.642404 -0.146302 -71.280527 -75.789753 176.372328
-1.4596 66.77539999999999 -45.0816 -163.122281 28.678336 -172.416123 10.819027 7.66701 92.184938 -4.919423 -4.572139 -86.478833 11.032075 14.898974 71.920494 -24.093304 -3.361815 -53.538621 16.587695 -1.115831 -7.643384 3.219351 -0.064193 -2.284012 -158.488037 -22.238587 164.843809 113.257685 -25.635987 148.529848 171.18378 45.025393 34.314868 -120.506038 48.073497 105.398875 -7.353583 8.753811 -2.706845 -111.286937 -6.017346 98.74179 -97.294802 44.769413 73.673499 -10.330686 4.771595 10.505285 -10.890662 -3.924773 1.911065 83.205053 -78.547841 37.432192 -80.66508 -72.513869 -89.265958 -144.254446 -11.469907 -175.967037 -21.819489 17.233911 17.706863 -128.902104 39.870218 -146.252381 84.237193 72.512523 -87.087133 65.456312 20.332176 -1.413725 -171.751277 39.497131 164.144523 166.866537 68.774835 -162.119618 -2.030773 -3.436167 0.433251 142.515338 -37.911614 -117.378307 135.196778 1.509713 -111.396973 4.89654 28.738372 3.021033 171.5584 -20.329785 -145.003869 65.712494 58.476896 -43.879774 142.315824 -1.033986 -174.406895 159.914819 -12.83356 -171.924874 38.649525 -33.479341 37.251525 -12.43064 82.225295 -71.358889 12.933704 2.595038 13.19239 -19.901157 -2.053074 90.413361 51.829894 -23.706034 -20.916223 -85.868683 -49.492088 -158.313098 -4.543595 4.882207 -3.644667 80.690871 -57.496932 166.662256 85.213241 -12.884087 78.164591 -70.348522 0.131079 172.128294
-1.1402 65.68549999999999 -45.6426 -162.683744 28.876039 -171.672846 14.362383 10.334507 -2.029293 2.252542 -7.758761 7.741988 -8.395991 21.387966 -81.677945 33.393864 10.565977 99.602516 19.156721 -1.94776 -11.504658 2.122549 0.015645 0.844505 -14.508865 42.093594 16.825573 -97.711619 -9.27422 176.997352 -176.109827 6.707853 -63.786503 -13.121022 -53.419825 -12.960968 13.06917 -15.602215 -5.035513 -123.659934 -14.876933 109.472919 -149.850006 8.914749 116.019654 -69.81223 54.434969 29.539606 -161.799354 18.286287 138.281238 -169.337988 22.412711 137.520382 -7.793351 -1.904058 2.310103 22.300974 -11.169305 3.608921 -127.98108 78.692731 147.954737 -111.330438 54.50932 157.606837 0.131188 -2.566864 5.060749 -62.493726 -7.295735 -83.730672 172.852851 44.640175 -132.254664 -63.908321 -58.564381 -68.996024 -0.19116 -2.571152 3.310456 157.097365 -61.374537 -114.115553 -14.44749 -17.179728 -0.882557 2.858391 21.07272 -2.209256 125.88318 52.479879 -109.928677 53.388063 48.10687 -48.890096 -3.376684 -0.485618 -4.375474 154.131725 -1.702278 -176.430005 35.20945 -27.854016 32.842667 -35.933122 -44.067806 5.756163 4.987926 1.005877 7.629543 -9.984459 -2.658397 -95.519436 -48.693704 7.221347 93.81918 42.222499 -54.378474 -21.5901 -172.27372 71.915633 -4.916781 -154.066141 -4.502609 80.82981 86.60563 7.778494 118.032652 -94.742469 40.415571 169.75489
-0.8496 64.7542 -46.016 -162.643311 28.76121 -171.123927 16.365725 9.811017 -44.506191 5.557558 -5.150945 50.180082 12.661446 20.479851 95.769684 -30.810174 9.11168 -74.516626 21.400046 -1.669265 -8.817499 1.711048 0.060497 4.049608 3.807958 -25.84413 -4.366965 134.159409 40.509449 -94.46471 107.13848 58.37437 89.734565 -76.295063 50.337167 58.801434 -0.800268 0.742465 -4.31396 -169.888955 -62.535992 96.821097 -153.987424 3.166303 118.280952 69.210989 -74.86062 43.579458 -169.505997 -12.693435 146.939247 -170.512348 3.879264 152.589281 -7.078271 -12.161947 -1.078488 23.361741 8.499019 6.301188 -37.211213 -41.177927 -13.347552 -121.316778 2.359398 -115.127711 146.835259 40.837947 -152.596288 -99.577276 36.940573 131.116945 2.033195 33.475874 -12.915443 38.564158 80.837825 -41.103093 175.060335 -10.404078 -94.358697 167.878172 -4.813837 -94.913755 -91.628272 -70.103435 -41.304696 -95.916052 -68.579574 -43.174906 -166.603565 -65.268223 -135.648497 5.575448 8.404769 8.020424 70.582966 71.035136 -91.730103 65.311087 -82.986545 82.591749 81.692405 -39.431719 73.10032 -150.852438 71.73921 66.550697 -1.634378 0.403767 2.113866 -4.067663 -2.340621 -60.131478 -41.788879 27.243566 52.389604 -120.596813 5.756973 12.129513 -2.483909 2.924773 -2.618285 82.289441 -56.961813 -96.475413 -47.061868 -72.713521 91.330849 -83.751145 -59.924377 16.209791
